<?xml version="1.0" encoding="UTF-8"?>
<svg xmlns="http://www.w3.org/2000/svg" xmlns:xlink="http://www.w3.org/1999/xlink" width="16pt" height="16pt" viewBox="0 0 16 16" version="1.1">
<g id="surface1">
<path style=" stroke:none;fill-rule:nonzero;fill:rgb(0%,0%,0%);fill-opacity:1;" d="M 15.179688 2.667969 L 0.820312 2.667969 C 0.371094 2.667969 0 3.035156 0 3.488281 L 0 12.511719 C 0 12.964844 0.371094 13.332031 0.820312 13.332031 L 15.179688 13.332031 C 15.628906 13.332031 16 12.964844 16 12.511719 L 16 3.488281 C 16 3.035156 15.628906 2.667969 15.179688 2.667969 Z M 14.871094 3.28125 L 8.472656 8.082031 C 8.355469 8.167969 8.179688 8.222656 8 8.222656 C 7.820312 8.222656 7.644531 8.167969 7.527344 8.082031 L 1.128906 3.28125 Z M 11.453125 8.398438 L 14.941406 12.707031 C 14.945312 12.710938 14.949219 12.714844 14.953125 12.71875 L 1.046875 12.71875 C 1.050781 12.714844 1.054688 12.710938 1.058594 12.707031 L 4.546875 8.398438 C 4.652344 8.265625 4.632812 8.074219 4.5 7.964844 C 4.367188 7.859375 4.175781 7.878906 4.070312 8.011719 L 0.617188 12.277344 L 0.617188 3.667969 L 7.160156 8.574219 C 7.40625 8.757812 7.703125 8.839844 8 8.839844 C 8.296875 8.839844 8.59375 8.757812 8.839844 8.574219 L 15.382812 3.667969 L 15.382812 12.277344 L 11.929688 8.011719 C 11.824219 7.878906 11.628906 7.859375 11.5 7.964844 C 11.367188 8.074219 11.347656 8.265625 11.453125 8.398438 Z M 11.453125 8.398438 "/>
</g>
</svg>
