<svg id="SvgjsSvg1001" width="288" height="288" xmlns="http://www.w3.org/2000/svg" version="1.1" xmlns:xlink="http://www.w3.org/1999/xlink" xmlns:svgjs="http://svgjs.com/svgjs"><defs id="SvgjsDefs1002"></defs><g id="SvgjsG1008" transform="matrix(0.9167,0,0,0.9167,11.995200000000011,11.996176171874993)"><svg xmlns="http://www.w3.org/2000/svg" width="288" height="288" viewBox="0 0 24 24"><path fill="#6979f8" d="M 23 12 C 23 5.925781 18.074219 1 12 1 C 5.925781 1 1 5.925781 1 12 C 1 17.492188 5.023438 22.042969 10.28125 22.867188 L 10.28125 15.179688 L 7.488281 15.179688 L 7.488281 12 L 10.28125 12 L 10.28125 9.578125 C 10.28125 6.820312 11.921875 5.296875 14.4375 5.296875 C 15.640625 5.296875 16.898438 5.511719 16.898438 5.511719 L 16.898438 8.21875 L 15.511719 8.21875 C 14.144531 8.21875 13.71875 9.066406 13.71875 9.9375 L 13.71875 12 L 16.769531 12 L 16.28125 15.179688 L 13.71875 15.179688 L 13.71875 22.867188 C 18.976562 22.042969 23 17.492188 23 12 Z M 23 12 " class="colorf53838 svgShape"></path><path fill="#ffffff" d="M 16.28125 15.179688 L 16.769531 12 L 13.71875 12 L 13.71875 9.9375 C 13.71875 9.066406 14.144531 8.21875 15.511719 8.21875 L 16.898438 8.21875 L 16.898438 5.511719 C 16.898438 5.511719 15.640625 5.296875 14.4375 5.296875 C 11.921875 5.296875 10.28125 6.820312 10.28125 9.578125 L 10.28125 12 L 7.488281 12 L 7.488281 15.179688 L 10.28125 15.179688 L 10.28125 22.867188 C 11.421875 23.046875 12.578125 23.046875 13.71875 22.867188 L 13.71875 15.179688 Z M 16.28125 15.179688 " class="colorfff svgShape"></path></svg></g></svg>