<svg id="SvgjsSvg1001" width="288" height="288" xmlns="http://www.w3.org/2000/svg" version="1.1" xmlns:xlink="http://www.w3.org/1999/xlink" xmlns:svgjs="http://svgjs.com/svgjs"><defs id="SvgjsDefs1002"></defs><g id="SvgjsG1008" transform="matrix(0.9167,0,0,0.9167,11.995200000000011,11.995200000000011)"><svg xmlns="http://www.w3.org/2000/svg" width="288" height="288" viewBox="0 0 24 24"><path fill="#6979f8" d="M 17.625 4.265625 L 6.375 4.265625 C 5.210938 4.265625 4.265625 5.210938 4.265625 6.375 L 4.265625 17.625 C 4.265625 18.789062 5.210938 19.734375 6.375 19.734375 L 17.625 19.734375 C 18.789062 19.734375 19.734375 18.789062 19.734375 17.625 L 19.734375 6.375 C 19.734375 5.210938 18.789062 4.265625 17.625 4.265625 Z M 12 16.921875 C 9.285156 16.921875 7.078125 14.714844 7.078125 12 C 7.078125 9.285156 9.285156 7.078125 12 7.078125 C 14.714844 7.078125 16.921875 9.285156 16.921875 12 C 16.921875 14.714844 14.714844 16.921875 12 16.921875 Z M 16.921875 8.484375 C 16.148438 8.484375 15.515625 7.851562 15.515625 7.078125 C 15.515625 6.304688 16.148438 5.671875 16.921875 5.671875 C 17.695312 5.671875 18.328125 6.304688 18.328125 7.078125 C 18.328125 7.851562 17.695312 8.484375 16.921875 8.484375 Z M 16.921875 8.484375 " class="colorf53838 svgShape"></path><path fill="#6979f8" d="M 12 8.484375 C 10.0625 8.484375 8.484375 10.0625 8.484375 12 C 8.484375 13.9375 10.0625 15.515625 12 15.515625 C 13.9375 15.515625 15.515625 13.9375 15.515625 12 C 15.515625 10.0625 13.9375 8.484375 12 8.484375 Z M 12 8.484375 " class="colorf53838 svgShape"></path><path fill="#6979f8" d="M 20.4375 0 L 3.5625 0 C 1.625 0 0 1.625 0 3.5625 L 0 20.4375 C 0 22.375 1.625 24 3.5625 24 L 20.4375 24 C 22.375 24 24 22.375 24 20.4375 L 24 3.5625 C 24 1.625 22.375 0 20.4375 0 Z M 21.140625 17.625 C 21.140625 19.5625 19.5625 21.140625 17.625 21.140625 L 6.375 21.140625 C 4.4375 21.140625 2.859375 19.5625 2.859375 17.625 L 2.859375 6.375 C 2.859375 4.4375 4.4375 2.859375 6.375 2.859375 L 17.625 2.859375 C 19.5625 2.859375 21.140625 4.4375 21.140625 6.375 Z M 21.140625 17.625 " class="colorf53838 svgShape"></path></svg></g></svg>