<svg id="SvgjsSvg1001" width="288" height="288" xmlns="http://www.w3.org/2000/svg" version="1.1" xmlns:xlink="http://www.w3.org/1999/xlink" xmlns:svgjs="http://svgjs.com/svgjs"><defs id="SvgjsDefs1002"></defs><g id="SvgjsG1008" transform="matrix(0.9167,0,0,0.9167,11.995200000000011,11.995200000000011)"><svg xmlns="http://www.w3.org/2000/svg" width="288" height="288" viewBox="0 0 24 24"><path fill="#6979f8" fill-rule="evenodd" d="M 2.222656 1 L 21.777344 1 C 22.453125 1 23 1.546875 23 2.222656 L 23 21.777344 C 23 22.453125 22.453125 23 21.777344 23 L 2.222656 23 C 1.546875 23 1 22.453125 1 21.777344 L 1 2.222656 C 1 1.546875 1.546875 1 2.222656 1 Z M 2.222656 1 " class="colorf53838 svgShape"></path><path fill="#ffffff" fill-rule="evenodd" d="M 5.015625 9.507812 L 7.953125 9.507812 L 7.953125 18.96875 L 5.015625 18.96875 Z M 6.484375 4.804688 C 7.425781 4.804688 8.1875 5.570312 8.1875 6.511719 C 8.1875 7.453125 7.425781 8.214844 6.484375 8.214844 C 5.867188 8.226562 5.292969 7.90625 4.980469 7.371094 C 4.667969 6.839844 4.667969 6.179688 4.980469 5.648438 C 5.292969 5.117188 5.867188 4.792969 6.484375 4.804688 Z M 9.800781 9.507812 L 12.621094 9.507812 L 12.621094 10.800781 L 12.660156 10.800781 C 13.050781 10.058594 14.011719 9.273438 15.441406 9.273438 C 18.417969 9.273438 18.96875 11.234375 18.96875 13.78125 L 18.96875 18.96875 L 16.03125 18.96875 L 16.03125 14.367188 C 16.03125 13.273438 16.007812 11.859375 14.503906 11.859375 C 12.972656 11.859375 12.738281 13.054688 12.738281 14.289062 L 12.738281 18.96875 L 9.800781 18.96875 Z M 9.800781 9.507812 " class="colorfff svgShape"></path></svg></g></svg>