<?xml version="1.0" encoding="UTF-8"?>
<svg xmlns="http://www.w3.org/2000/svg" xmlns:xlink="http://www.w3.org/1999/xlink" width="16pt" height="16pt" viewBox="0 0 16 16" version="1.1">
<g id="surface1">
<path style=" stroke:none;fill-rule:nonzero;fill:#1a051d;fill-opacity:0.7;" d="M 7.972656 14.644531 L 1.992188 14.644531 C 1.625 14.644531 1.328125 14.347656 1.328125 13.980469 L 1.328125 2.019531 C 1.328125 1.652344 1.625 1.355469 1.992188 1.355469 L 7.972656 1.355469 C 8.339844 1.355469 8.636719 1.058594 8.636719 0.691406 C 8.636719 0.324219 8.339844 0.0273438 7.972656 0.0273438 L 1.992188 0.0273438 C 0.894531 0.0273438 0 0.921875 0 2.019531 L 0 13.980469 C 0 15.078125 0.894531 15.972656 1.992188 15.972656 L 7.972656 15.972656 C 8.339844 15.972656 8.636719 15.675781 8.636719 15.308594 C 8.636719 14.941406 8.339844 14.644531 7.972656 14.644531 Z M 7.972656 14.644531 "/>
<path style=" stroke:none;fill-rule:nonzero;fill:#1a051d;fill-opacity:0.7;" d="M 15.800781 7.527344 L 11.761719 3.539062 C 11.5 3.28125 11.082031 3.285156 10.824219 3.546875 C 10.566406 3.808594 10.566406 4.230469 10.828125 4.488281 L 13.714844 7.335938 L 5.980469 7.335938 C 5.613281 7.335938 5.316406 7.632812 5.316406 8 C 5.316406 8.367188 5.613281 8.664062 5.980469 8.664062 L 13.714844 8.664062 L 10.828125 11.511719 C 10.566406 11.769531 10.566406 12.191406 10.824219 12.453125 C 10.953125 12.585938 11.125 12.652344 11.296875 12.652344 C 11.464844 12.652344 11.632812 12.585938 11.761719 12.460938 L 15.800781 8.472656 C 15.929688 8.347656 16 8.179688 16 8 C 16 7.820312 15.929688 7.652344 15.800781 7.527344 Z M 15.800781 7.527344 "/>
</g>
</svg>
