<?xml version="1.0" encoding="UTF-8"?>
<svg xmlns="http://www.w3.org/2000/svg" xmlns:xlink="http://www.w3.org/1999/xlink" width="16pt" height="16pt" viewBox="0 0 16 16" version="1.1">
<g id="surface1">
<path style=" stroke:none;fill-rule:nonzero;fill:#1a051d;fill-opacity:0.7;" d="M 8.503906 16 L 7.496094 16 C 6.6875 16 6.023438 15.339844 6.023438 14.527344 L 6.023438 14.1875 C 5.679688 14.078125 5.34375 13.9375 5.023438 13.769531 L 4.78125 14.011719 C 4.199219 14.59375 3.265625 14.578125 2.699219 14.011719 L 1.988281 13.300781 C 1.421875 12.734375 1.40625 11.800781 1.988281 11.21875 L 2.230469 10.976562 C 2.0625 10.65625 1.921875 10.320312 1.8125 9.976562 L 1.472656 9.976562 C 0.660156 9.976562 0 9.3125 0 8.503906 L 0 7.496094 C 0 6.6875 0.660156 6.023438 1.472656 6.023438 L 1.8125 6.023438 C 1.921875 5.679688 2.0625 5.34375 2.230469 5.023438 L 1.988281 4.78125 C 1.40625 4.199219 1.421875 3.265625 1.988281 2.699219 L 2.699219 1.988281 C 3.265625 1.421875 4.199219 1.40625 4.78125 1.988281 L 5.023438 2.230469 C 5.34375 2.0625 5.679688 1.921875 6.023438 1.8125 L 6.023438 1.472656 C 6.023438 0.660156 6.6875 0 7.496094 0 L 8.503906 0 C 9.3125 0 9.976562 0.660156 9.976562 1.472656 L 9.976562 1.8125 C 10.320312 1.921875 10.65625 2.0625 10.976562 2.230469 L 11.21875 1.988281 C 11.800781 1.40625 12.734375 1.421875 13.300781 1.988281 L 14.011719 2.699219 C 14.578125 3.265625 14.59375 4.199219 14.011719 4.78125 L 13.769531 5.023438 C 13.9375 5.34375 14.078125 5.679688 14.1875 6.023438 L 14.527344 6.023438 C 15.339844 6.023438 16 6.6875 16 7.496094 L 16 8.503906 C 16 9.3125 15.339844 9.976562 14.527344 9.976562 L 14.1875 9.976562 C 14.078125 10.320312 13.9375 10.65625 13.769531 10.976562 L 14.011719 11.21875 C 14.59375 11.800781 14.578125 12.734375 14.011719 13.300781 L 13.300781 14.011719 C 12.734375 14.578125 11.800781 14.59375 11.21875 14.011719 L 10.976562 13.769531 C 10.65625 13.9375 10.320312 14.078125 9.976562 14.1875 L 9.976562 14.527344 C 9.976562 15.339844 9.3125 16 8.503906 16 Z M 5.179688 12.785156 C 5.625 13.050781 6.109375 13.25 6.609375 13.382812 C 6.816406 13.433594 6.960938 13.621094 6.960938 13.835938 L 6.960938 14.527344 C 6.960938 14.824219 7.203125 15.0625 7.496094 15.0625 L 8.503906 15.0625 C 8.796875 15.0625 9.039062 14.824219 9.039062 14.527344 L 9.039062 13.835938 C 9.039062 13.621094 9.183594 13.433594 9.390625 13.382812 C 9.890625 13.25 10.375 13.050781 10.820312 12.785156 C 11.003906 12.675781 11.238281 12.707031 11.390625 12.859375 L 11.882812 13.347656 C 12.09375 13.558594 12.433594 13.554688 12.640625 13.347656 L 13.347656 12.640625 C 13.554688 12.433594 13.5625 12.09375 13.347656 11.882812 L 12.859375 11.390625 C 12.707031 11.238281 12.675781 11.003906 12.785156 10.820312 C 13.050781 10.375 13.25 9.890625 13.382812 9.390625 C 13.433594 9.183594 13.621094 9.039062 13.835938 9.039062 L 14.527344 9.039062 C 14.824219 9.039062 15.0625 8.796875 15.0625 8.503906 L 15.0625 7.496094 C 15.0625 7.203125 14.824219 6.960938 14.527344 6.960938 L 13.835938 6.960938 C 13.621094 6.960938 13.433594 6.816406 13.382812 6.609375 C 13.25 6.109375 13.050781 5.625 12.785156 5.179688 C 12.675781 4.996094 12.707031 4.761719 12.859375 4.609375 L 13.347656 4.117188 C 13.5625 3.90625 13.554688 3.566406 13.347656 3.363281 L 12.640625 2.652344 C 12.433594 2.445312 12.09375 2.4375 11.882812 2.652344 L 11.390625 3.140625 C 11.238281 3.292969 11.003906 3.324219 10.820312 3.214844 C 10.375 2.949219 9.890625 2.75 9.390625 2.617188 C 9.183594 2.566406 9.039062 2.378906 9.039062 2.164062 L 9.039062 1.472656 C 9.039062 1.175781 8.796875 0.9375 8.503906 0.9375 L 7.496094 0.9375 C 7.203125 0.9375 6.960938 1.175781 6.960938 1.472656 L 6.960938 2.164062 C 6.960938 2.378906 6.816406 2.566406 6.609375 2.617188 C 6.109375 2.75 5.625 2.949219 5.179688 3.214844 C 4.996094 3.324219 4.761719 3.292969 4.609375 3.140625 L 4.117188 2.652344 C 3.90625 2.441406 3.566406 2.445312 3.363281 2.652344 L 2.652344 3.359375 C 2.445312 3.566406 2.4375 3.90625 2.652344 4.117188 L 3.140625 4.609375 C 3.292969 4.761719 3.324219 4.996094 3.214844 5.179688 C 2.949219 5.625 2.75 6.109375 2.617188 6.609375 C 2.566406 6.816406 2.378906 6.960938 2.164062 6.960938 L 1.472656 6.960938 C 1.175781 6.960938 0.9375 7.203125 0.9375 7.496094 L 0.9375 8.503906 C 0.9375 8.796875 1.175781 9.039062 1.472656 9.039062 L 2.164062 9.039062 C 2.378906 9.039062 2.566406 9.183594 2.617188 9.390625 C 2.75 9.890625 2.949219 10.375 3.214844 10.820312 C 3.324219 11.003906 3.292969 11.238281 3.140625 11.390625 L 2.652344 11.882812 C 2.4375 12.09375 2.445312 12.433594 2.652344 12.640625 L 3.359375 13.347656 C 3.566406 13.554688 3.90625 13.5625 4.117188 13.347656 L 4.609375 12.859375 C 4.71875 12.746094 4.953125 12.652344 5.179688 12.785156 Z M 5.179688 12.785156 "/>
<path style=" stroke:none;fill-rule:nonzero;fill:#1a051d;fill-opacity:0.7;" d="M 8 11.480469 C 6.082031 11.480469 4.519531 9.917969 4.519531 8 C 4.519531 6.082031 6.082031 4.519531 8 4.519531 C 9.917969 4.519531 11.480469 6.082031 11.480469 8 C 11.480469 9.917969 9.917969 11.480469 8 11.480469 Z M 8 5.457031 C 6.597656 5.457031 5.457031 6.597656 5.457031 8 C 5.457031 9.402344 6.597656 10.542969 8 10.542969 C 9.402344 10.542969 10.542969 9.402344 10.542969 8 C 10.542969 6.597656 9.402344 5.457031 8 5.457031 Z M 8 5.457031 "/>
</g>
</svg>
