<?xml version="1.0" encoding="UTF-8"?>
<svg xmlns="http://www.w3.org/2000/svg" xmlns:xlink="http://www.w3.org/1999/xlink" width="16pt" height="16pt" viewBox="0 0 16 16" version="1.1">
<g id="surface1">
<path style=" stroke:none;fill-rule:nonzero;fill:#3F3356;fill-opacity:0.6;" d="M 7.886719 7.707031 C 8.945312 7.707031 9.863281 7.328125 10.609375 6.578125 C 11.359375 5.828125 11.738281 4.914062 11.738281 3.851562 C 11.738281 2.792969 11.359375 1.878906 10.609375 1.128906 C 9.863281 0.378906 8.945312 0 7.886719 0 C 6.828125 0 5.910156 0.378906 5.160156 1.128906 C 4.414062 1.878906 4.03125 2.792969 4.03125 3.851562 C 4.03125 4.914062 4.414062 5.828125 5.160156 6.578125 C 5.910156 7.328125 6.828125 7.707031 7.886719 7.707031 Z M 7.886719 7.707031 "/>
<path style=" stroke:none;fill-rule:nonzero;fill:#3F3356;fill-opacity:0.6;" d="M 14.628906 12.304688 C 14.605469 11.992188 14.5625 11.652344 14.5 11.292969 C 14.433594 10.929688 14.351562 10.589844 14.25 10.277344 C 14.148438 9.953125 14.007812 9.632812 13.832031 9.328125 C 13.652344 9.011719 13.441406 8.734375 13.203125 8.507812 C 12.953125 8.269531 12.648438 8.078125 12.296875 7.9375 C 11.945312 7.800781 11.558594 7.730469 11.140625 7.730469 C 10.980469 7.730469 10.820312 7.796875 10.515625 7.996094 C 10.328125 8.117188 10.109375 8.257812 9.863281 8.414062 C 9.652344 8.546875 9.371094 8.671875 9.019531 8.785156 C 8.675781 8.898438 8.328125 8.953125 7.988281 8.953125 C 7.644531 8.953125 7.296875 8.898438 6.953125 8.785156 C 6.605469 8.671875 6.320312 8.546875 6.109375 8.414062 C 5.867188 8.261719 5.648438 8.117188 5.457031 7.996094 C 5.152344 7.796875 4.996094 7.730469 4.832031 7.730469 C 4.414062 7.730469 4.027344 7.800781 3.675781 7.9375 C 3.324219 8.078125 3.019531 8.269531 2.769531 8.507812 C 2.53125 8.734375 2.320312 9.011719 2.140625 9.328125 C 1.96875 9.632812 1.828125 9.953125 1.722656 10.277344 C 1.621094 10.589844 1.539062 10.929688 1.472656 11.292969 C 1.410156 11.652344 1.367188 11.992188 1.34375 12.304688 C 1.324219 12.609375 1.3125 12.925781 1.3125 13.25 C 1.3125 14.082031 1.578125 14.757812 2.101562 15.257812 C 2.617188 15.75 3.304688 16 4.136719 16 L 11.839844 16 C 12.671875 16 13.355469 15.75 13.871094 15.257812 C 14.394531 14.761719 14.660156 14.082031 14.660156 13.25 C 14.660156 12.925781 14.648438 12.609375 14.628906 12.304688 Z M 14.628906 12.304688 "/>
</g>
</svg>
